<svg width="364" height="11" viewBox="0 0 364 11" fill="none" xmlns="http://www.w3.org/2000/svg">
<g clip-path="url(#clip0_112_2)">
<path d="M186.348 5.47656C186.348 5.78125 186.316 6.08594 186.262 6.38281C186.203 6.68359 186.117 6.97656 186.004 7.25781C185.891 7.53906 185.75 7.80859 185.586 8.0625C185.422 8.31641 185.234 8.55078 185.027 8.76562C184.816 8.98047 184.59 9.17578 184.344 9.34375C184.098 9.51562 183.836 9.65625 183.562 9.77344C183.289 9.89062 183.008 9.98047 182.719 10.0391C182.426 10.0977 182.133 10.1289 181.836 10.1289C181.543 10.1289 181.25 10.0977 180.957 10.0391C180.668 9.98047 180.387 9.89062 180.113 9.77344C179.84 9.65625 179.578 9.51562 179.332 9.34375C179.086 9.17578 178.859 8.98047 178.648 8.76562C178.438 8.55078 178.254 8.31641 178.086 8.0625C177.922 7.80859 177.785 7.53906 177.672 7.25781C177.559 6.97656 177.473 6.68359 177.414 6.38281C177.355 6.08594 177.328 5.78125 177.328 5.47656C177.328 5.17187 177.355 4.86719 177.414 4.57031C177.473 4.26953 177.559 3.98047 177.672 3.69531C177.785 3.41406 177.922 3.14844 178.086 2.89453C178.254 2.64062 178.438 2.40234 178.648 2.1875C178.859 1.97266 179.086 1.77734 179.332 1.60938C179.578 1.44141 179.84 1.29687 180.113 1.17969C180.387 1.0625 180.668 0.976563 180.957 0.914063C181.25 0.855469 181.543 0.824219 181.836 0.824219C182.133 0.824219 182.426 0.855469 182.719 0.914063C183.008 0.976563 183.289 1.0625 183.562 1.17969C183.836 1.29687 184.098 1.44141 184.344 1.60938C184.59 1.77734 184.816 1.97266 185.027 2.1875C185.234 2.40234 185.422 2.64062 185.586 2.89453C185.75 3.14844 185.891 3.41406 186.004 3.69531C186.117 3.98047 186.203 4.26953 186.262 4.57031C186.316 4.86719 186.348 5.17187 186.348 5.47656Z" fill="#171515"/>
<path d="M106.922 4.875H0.582031C0.21875 4.875 0 5.17578 0 5.47656C0 5.77734 0.21875 6.07813 0.582031 6.07813H106.922L169.547 10.9531L174.855 5.47656L169.547 0L106.922 4.875Z" fill="#171515"/>
<path d="M363.094 4.875H256.754L194.129 0L188.82 5.47656L194.129 10.9531L256.754 6.07813H363.168C363.457 6.07813 363.75 5.85156 363.75 5.47656C363.75 5.10156 363.457 4.875 363.094 4.875Z" fill="#171515"/>
</g>
<defs>
<clipPath id="clip0_112_2">
<rect width="363.8" height="10.95" fill="white"/>
</clipPath>
</defs>
</svg>
