<svg width="211" height="25" viewBox="0 0 211 25" fill="none" xmlns="http://www.w3.org/2000/svg">
<path d="M91.1138 3.93768C90.6551 4.10406 89.2373 4.82504 87.9863 5.54601C84.1083 7.73668 82.8573 7.95852 80.4804 6.79386C78.8541 6.01742 78.312 6.10061 79.4796 6.96024C81.9816 8.81815 84.3168 8.65177 88.1948 6.37791C91.6976 4.3259 93.1988 3.93768 95.3255 4.6032C97.6189 5.32417 98.4946 6.43337 98.3278 8.48539C98.2027 9.73324 97.8691 10.4819 97.1186 11.2584C96.1178 12.3121 96.1178 12.3953 96.6599 13.8373C97.4104 15.8893 97.0352 17.0817 95.3672 17.7472C93.5324 18.4959 90.6968 18.4404 87.2774 17.5808C83.1075 16.5548 82.8156 16.4993 83.1909 16.8876C83.3577 17.0817 84.6504 17.6085 86.0682 18.0522C90.6134 19.4942 95.8259 19.0782 97.4104 17.1371C98.161 16.2498 98.1193 14.281 97.327 13.2549C96.7016 12.4785 96.7433 12.3953 97.5355 11.813C98.578 11.092 99.6622 9.40048 99.6622 8.54085C99.6622 7.18208 98.6614 5.65693 97.1603 4.65866C95.8259 3.74357 95.3255 3.60492 93.7826 3.60492C92.7818 3.60492 91.5725 3.7713 91.1138 3.93768Z" fill="#F9F6F0"/>
<path d="M112.38 4.21506C110.838 5.01923 109.67 6.79395 109.67 8.37455C109.67 9.98289 110.17 10.9257 111.546 11.7576L112.631 12.4231L111.755 13.3659C110.087 15.2239 111.171 17.6086 114.257 18.6624C115.925 19.2447 118.719 19.1615 121.763 18.4405C123.681 17.9968 126.558 16.6935 126.183 16.444C126.058 16.3608 125.683 16.4162 125.391 16.5826C124.223 17.2204 119.177 18.3019 117.301 18.3019C114.966 18.3019 112.881 17.5254 112.172 16.3331C111.713 15.6398 111.755 15.2516 112.38 13.8651C113.089 12.2567 113.089 12.229 112.255 11.508C108.502 8.34682 111.755 3.52181 116.967 4.49236C117.676 4.60328 119.511 5.46291 121.054 6.378C124.89 8.62412 126.6 8.84596 129.144 7.37627C130.645 6.51665 130.103 6.12843 128.518 6.90487C126.391 7.90314 123.973 7.54265 121.763 5.96205C121.179 5.5461 119.97 4.82512 119.094 4.40917C117.009 3.38316 114.132 3.29997 112.38 4.21506Z" fill="#F9F6F0"/>
<path d="M35.8202 7.293C34.4441 7.76441 33.485 8.45766 31.9004 10.0383L29.8154 12.1457L21.267 12.2567C11.6344 12.3676 11.8846 12.423 10.1749 10.2601C9.63281 9.56686 9.21581 9.20637 9.17411 9.45594C9.17411 9.70551 9.63281 10.4819 10.2166 11.2029L11.2174 12.4785L6.75554 12.5062C-0.375097 12.5617 -0.541896 12.9222 6.46364 13.0886C12.4684 13.2272 12.802 13.2549 15.0955 14.0868C19.3071 15.5843 24.7698 15.5288 28.2308 13.9482L29.8154 13.2272L43.2844 13.3936L56.7117 13.5322L59.5055 15.3624C61.0067 16.3607 62.3828 17.1371 62.4662 17.0539C62.5913 16.9708 62.1326 16.1666 61.4237 15.2515L60.1727 13.5877H61.4654C64.5512 13.5877 78.729 14.1978 84.4419 14.5583C87.903 14.7801 91.3223 14.9742 92.0729 14.9742C94.5749 14.9742 95.8259 13.3104 94.6166 11.5634C93.8243 10.371 92.7818 10.2878 86.2767 10.6761C79.2711 11.1197 65.2601 11.6466 60.7565 11.6466C57.7542 11.6466 57.5457 11.5911 55.7943 10.6206C53.334 9.26183 47.9547 7.5703 44.4103 7.07116C40.2403 6.48883 37.9885 6.54429 35.8202 7.293ZM42.9925 7.48711C45.9115 7.8476 50.5818 9.40048 52.9587 10.787L54.8352 11.8962L46.6621 11.9239C42.1585 11.9239 36.7792 12.0071 34.6526 12.118L30.8579 12.2844L32.3174 10.6761C33.1097 9.7887 34.1939 8.76269 34.6943 8.4022C36.2789 7.293 38.9893 6.98797 42.9925 7.48711Z" fill="#F9F6F0"/>
<path d="M164.088 7.0991C160.502 7.62597 155.123 9.31749 152.662 10.704L150.828 11.7577L140.153 11.3972C134.273 11.2309 126.684 10.8981 123.223 10.6763C116.759 10.288 115.883 10.3712 115.091 11.3695C114.341 12.2846 114.591 14.0039 115.508 14.5585C116.342 15.0576 116.634 15.0576 124.599 14.5862C131.938 14.1702 144.239 13.6156 147.283 13.5879H148.409L147.2 15.3072C146.533 16.25 146.032 17.0819 146.157 17.1373C146.241 17.1928 147.575 16.4164 149.118 15.4181L151.87 13.5602L165.297 13.3938L178.725 13.2274L180.434 13.9761C184.021 15.5567 189.775 15.5567 194.195 13.9484C196.03 13.2829 196.697 13.1997 202.66 13.0888C210.208 12.9224 209.999 12.5342 202.327 12.5064L197.198 12.4787L198.032 11.6745C198.532 11.2309 199.032 10.4544 199.158 9.92755L199.366 9.01246L198.574 10.1217C196.947 12.3401 196.864 12.3401 187.315 12.2569L178.85 12.1737L177.724 10.8981C174.221 6.93272 171.26 6.10082 164.088 7.0991ZM172.011 7.62597C173.762 8.04191 174.555 8.62424 176.556 10.9258L177.724 12.2846L174.888 12.1182C173.304 12.0073 168.008 11.9241 163.171 11.9241C158.292 11.9241 154.289 11.8132 154.289 11.7023C154.289 11.314 158.917 9.12338 161.253 8.4024C165.047 7.23775 169.134 6.93272 172.011 7.62597Z" fill="#F9F6F0"/>
<path d="M102.122 10.7871C98.9533 12.8946 102.248 16.3608 106.376 15.2516C107.71 14.8634 108.836 13.7265 108.836 12.7559C108.836 11.9517 107.71 10.6207 106.793 10.2602C105.25 9.73334 103.415 9.92745 102.122 10.7871Z" fill="#F9F6F0"/>
</svg>
